name ./resultDataOpenSim/trcMotMarkerGrf/sub06/grf-12-05.mot
datacolumns 19
datarows 25
range 1.03200000 1.12800000
endheader

                time	     ground_force_vx	     ground_force_vy	     ground_force_vz	     ground_force_px	     ground_force_py	     ground_force_pz	   l_ground_force_vx	   l_ground_force_vy	   l_ground_force_vz	   l_ground_force_px	   l_ground_force_py	   l_ground_force_pz	     ground_torque_x	     ground_torque_y	     ground_torque_z	   l_ground_torque_x	   l_ground_torque_y	   l_ground_torque_z	
          1.03200000	          0.00000000	          0.00000000	          0.00000000	          0.00000000	          0.00000000	          0.00000000	         72.39861920	        591.23734205	         18.81182614	          0.08026024	         -0.02500200	         -0.06192459	          0.00000000	          0.00000000	          0.00000000	          0.00000000	         -3.75540753	          0.00000000	
          1.03600000	          0.00000000	          0.00000000	          0.00000000	          0.00000000	          0.00000000	          0.00000000	         78.20244120	        610.78310069	         20.33970463	          0.08062655	         -0.02500200	         -0.06181737	          0.00000000	          0.00000000	          0.00000000	          0.00000000	         -3.84809117	          0.00000000	
          1.04000000	          0.00000000	          0.00000000	          0.00000000	          0.00000000	          0.00000000	          0.00000000	         84.26133583	        630.44449112	         21.85541885	          0.08098006	         -0.02500200	         -0.06171393	          0.00000000	          0.00000000	          0.00000000	          0.00000000	         -3.93601192	          0.00000000	
          1.04400000	          0.00000000	          0.00000000	          0.00000000	          0.00000000	          0.00000000	          0.00000000	         90.50403433	        649.96746895	         23.30709514	          0.08134077	         -0.02500200	         -0.06160477	          0.00000000	          0.00000000	          0.00000000	          0.00000000	         -4.02006376	          0.00000000	
          1.04800000	          0.00000000	          0.00000000	          0.00000000	          0.00000000	          0.00000000	          0.00000000	         96.88434928	        669.10077569	         24.65080213	          0.08171581	         -0.02500252	         -0.06148186	          0.00000000	          0.00000000	          0.00000000	          0.00000000	         -4.10108063	          0.00000000	
          1.05200000	          0.00000000	          0.00000000	          0.00000000	          0.00000000	          0.00000000	          0.00000000	        103.39304101	        687.59747232	         25.85376705	          0.08208974	         -0.02500292	         -0.06133848	          0.00000000	          0.00000000	          0.00000000	          0.00000000	         -4.17960109	          0.00000000	
          1.05600000	          0.00000000	          0.00000000	          0.00000000	          0.00000000	          0.00000000	          0.00000000	        110.05596360	        705.19658046	         26.89605558	          0.08245521	         -0.02500247	         -0.06115896	          0.00000000	          0.00000000	          0.00000000	          0.00000000	         -4.25569310	          0.00000000	
          1.06000000	          0.00000000	          0.00000000	          0.00000000	          0.00000000	          0.00000000	          0.00000000	        116.91655193	        721.62807590	         27.77454718	          0.08283480	         -0.02500200	         -0.06092297	          0.00000000	          0.00000000	          0.00000000	          0.00000000	         -4.32890254	          0.00000000	
          1.06400000	          0.00000000	          0.00000000	          0.00000000	          0.00000000	          0.00000000	          0.00000000	        123.99738694	        736.63219258	         28.49127640	          0.08325633	         -0.02500200	         -0.06062684	          0.00000000	          0.00000000	          0.00000000	          0.00000000	         -4.39834573	          0.00000000	
          1.06800000	          0.00000000	          0.00000000	          0.00000000	          0.00000000	          0.00000000	          0.00000000	        131.26627916	        749.95752242	         29.03131190	          0.08372471	         -0.02500200	         -0.06028905	          0.00000000	          0.00000000	          0.00000000	          0.00000000	         -4.46284557	          0.00000000	
          1.07200000	          0.00000000	          0.00000000	          0.00000000	          0.00000000	          0.00000000	          0.00000000	        138.64266783	        761.34514936	         29.36647106	          0.08422068	         -0.02500200	         -0.05993757	          0.00000000	          0.00000000	          0.00000000	          0.00000000	         -4.52095716	          0.00000000	
          1.07600000	          0.00000000	          0.00000000	          0.00000000	          0.00000000	          0.00000000	          0.00000000	        146.03452657	        770.53174498	         29.47935972	          0.08471888	         -0.02500200	         -0.05959789	          0.00000000	          0.00000000	          0.00000000	          0.00000000	         -4.57086845	          0.00000000	
          1.08000000	          0.00000000	          0.00000000	          0.00000000	          0.00000000	          0.00000000	          0.00000000	        153.36737544	        777.27785325	         29.37329841	          0.08522078	         -0.02500200	         -0.05927428	          0.00000000	          0.00000000	          0.00000000	          0.00000000	         -4.61032164	          0.00000000	
          1.08400000	          0.00000000	          0.00000000	          0.00000000	          0.00000000	          0.00000000	          0.00000000	        160.59240771	        781.40012832	         29.06778405	          0.08576183	         -0.02500197	         -0.05895267	          0.00000000	          0.00000000	          0.00000000	          0.00000000	         -4.63667332	          0.00000000	
          1.08800000	          0.00000000	          0.00000000	          0.00000000	          0.00000000	          0.00000000	          0.00000000	        167.67928177	        782.78653591	         28.58877848	          0.08637317	         -0.02500173	         -0.05862163	          0.00000000	          0.00000000	          0.00000000	          0.00000000	         -4.64706320	          0.00000000	
          1.09200000	          0.00000000	          0.00000000	          0.00000000	          0.00000000	          0.00000000	          0.00000000	        174.59234292	        781.38050389	         27.95554470	          0.08707379	         -0.02500100	         -0.05826834	          0.00000000	          0.00000000	          0.00000000	          0.00000000	         -4.63859562	          0.00000000	
          1.09600000	          0.00000000	          0.00000000	          0.00000000	          0.00000000	          0.00000000	          0.00000000	        181.26325530	        777.13303828	         27.17427434	          0.08788702	         -0.02500100	         -0.05788437	          0.00000000	          0.00000000	          0.00000000	          0.00000000	         -4.60851393	          0.00000000	
          1.10000000	          0.00000000	          0.00000000	          0.00000000	          0.00000000	          0.00000000	          0.00000000	        187.58857452	        769.97978570	         26.24232052	          0.08881924	         -0.02500100	         -0.05747490	          0.00000000	          0.00000000	          0.00000000	          0.00000000	         -4.55443973	          0.00000000	
          1.10400000	          0.00000000	          0.00000000	          0.00000000	          0.00000000	          0.00000000	          0.00000000	        193.45169908	        759.89152648	         25.15589512	          0.08982344	         -0.02500020	         -0.05706252	          0.00000000	          0.00000000	          0.00000000	          0.00000000	         -4.47471660	          0.00000000	
          1.10800000	          0.00000000	          0.00000000	          0.00000000	          0.00000000	          0.00000000	          0.00000000	        198.74399138	        746.90810737	         23.91992993	          0.09081543	         -0.02500001	         -0.05667228	          0.00000000	          0.00000000	          0.00000000	          0.00000000	         -4.36880044	          0.00000000	
          1.11200000	          0.00000000	          0.00000000	          0.00000000	          0.00000000	          0.00000000	          0.00000000	        203.37090101	        731.08622741	         22.55753584	          0.09173985	         -0.02499985	         -0.05631724	          0.00000000	          0.00000000	          0.00000000	          0.00000000	         -4.23759551	          0.00000000	
          1.11600000	          0.00000000	          0.00000000	          0.00000000	          0.00000000	          0.00000000	          0.00000000	        207.23359348	        712.44218024	         21.10185581	          0.09259343	         -0.02499913	         -0.05599397	          0.00000000	          0.00000000	          0.00000000	          0.00000000	         -4.08358733	          0.00000000	
          1.12000000	          0.00000000	          0.00000000	          0.00000000	          0.00000000	          0.00000000	          0.00000000	        210.19299498	        690.92745356	         19.56590103	          0.09338886	         -0.02499900	         -0.05568032	          0.00000000	          0.00000000	          0.00000000	          0.00000000	         -3.91053592	          0.00000000	
          1.12400000	          0.00000000	          0.00000000	          0.00000000	          0.00000000	          0.00000000	          0.00000000	        212.05073071	        666.39852939	         17.91990605	          0.09412914	         -0.02499824	         -0.05534987	          0.00000000	          0.00000000	          0.00000000	          0.00000000	         -3.72257879	          0.00000000	
          1.12800000	          0.00000000	          0.00000000	          0.00000000	          0.00000000	          0.00000000	          0.00000000	        212.55524873	        638.59224714	         16.10680874	          0.09482236	         -0.02499800	         -0.05500038	          0.00000000	          0.00000000	          0.00000000	          0.00000000	         -3.52298016	          0.00000000	
